<svg width="231" height="21" viewBox="0 0 231 21" fill="none" xmlns="http://www.w3.org/2000/svg" class="@@class"><title>MUSINSA X 29CM</title><path d="M28.1836 12.083C28.1836 15.6105 30.0096 17.7773 32.9404 17.7773C35.871 17.7772 37.6963 15.6104 37.6963 12.083V0.780273H40.4893V12.0557C40.4891 17.3602 37.4747 20.4989 32.9404 20.499C28.406 20.499 25.3917 17.3603 25.3916 12.0557V0.780273H28.1836V12.083ZM50.1533 0.498047C53.8592 0.498047 56.0996 2.74822 56.0996 6.30371H53.1689V5.94238C53.1689 4.16504 51.9235 3.19238 50.1533 3.19238C48.3562 3.19253 47.1953 4.16519 47.1953 5.74805C47.1954 7.13638 47.9695 7.83051 50.4023 8.74707L51.5088 9.16406C53.2237 9.80316 54.2467 10.3584 55.0762 11.2471C55.9056 12.1357 56.4033 13.1358 56.4033 14.7188C56.4031 17.8014 53.8314 20.4951 50.1816 20.4951C46.587 20.4951 43.7939 18.2184 43.7939 14.2734H46.7256V14.5518C46.7256 16.5794 48.1636 17.8007 50.1816 17.8008C52.2004 17.8008 53.4724 16.6352 53.4727 14.8301C53.4727 12.7744 52.1731 12.386 49.9326 11.5518L48.6055 11.0527C47.1395 10.4969 46.1446 9.96957 45.4248 9.08105C44.7073 8.19239 44.2647 7.1923 44.2646 5.80371C44.2646 3.30415 46.1166 0.498236 50.1533 0.498047ZM92.627 0.498047C96.332 0.498085 98.5723 2.74825 98.5723 6.30371H95.6406V5.94238C95.6406 4.16507 94.3962 3.19242 92.627 3.19238C90.8288 3.19238 89.667 4.16507 89.667 5.74805C89.6671 7.13642 90.4421 7.83048 92.876 8.74707L93.9814 9.16406C95.6962 9.80312 96.7202 10.3585 97.5488 11.2471C98.3782 12.1357 98.876 13.1359 98.876 14.7188C98.8758 17.8013 96.3039 20.495 92.6543 20.4951C89.0604 20.4951 86.2666 18.2185 86.2666 14.2734H89.1973V14.5518C89.1973 16.5795 90.6354 17.8008 92.6543 17.8008C94.6729 17.8007 95.9441 16.6351 95.9443 14.8301C95.9443 12.7744 94.6449 12.386 92.4053 11.5518L91.0781 11.0527C89.612 10.4968 88.6165 9.96971 87.8975 9.08105C87.1792 8.19241 86.7363 7.19226 86.7363 5.80371C86.7363 3.30407 88.5891 0.498047 92.627 0.498047ZM62.7441 20.2217H59.9238V0.780273H62.7441V20.2217ZM118.861 20.2178H116.013L113.829 14.8027H105.201L103.017 20.2178H100.168L107.993 0.776367H111.035L118.861 20.2178ZM10.9307 12.0801L17.8984 0.775391H21.1895V20.2168H18.4238V4.88672L12.2012 14.9688H9.6582L3.46484 4.88672V20.2168H0.699219V0.775391H3.98926L10.9307 12.0801ZM80.1934 15.9131V0.775391H82.958V20.2168H79.8613L69.7959 5.16406V20.2168H67.0312V0.775391H70.1006L80.1934 15.9131ZM106.305 12.0527H112.72L109.513 4.10938L106.305 12.0527Z" fill="#000001"></path><rect x="134.861" y="1.49854" width="0.7" height="18" fill="#8A8A8A"></rect><path fill-rule="evenodd" clip-rule="evenodd" d="M227.303 1.15674L220.761 10.398L214.219 1.15674H211.354V19.9719H213.962V5.12631L220.761 14.9604L227.56 5.12631V19.9719H230.169V1.15674H227.303Z" fill="black"></path><path fill-rule="evenodd" clip-rule="evenodd" d="M198.084 3.14143C200.131 3.14143 201.98 3.98019 203.324 5.32485L205.089 3.55955C203.28 1.82035 200.813 0.737793 198.084 0.737793C192.554 0.737793 188.055 5.14611 188.055 10.5641C188.055 15.9822 192.554 20.3905 198.084 20.3905C200.813 20.3905 203.28 19.3077 205.089 17.5687L203.324 15.8032C201.98 17.1481 200.131 17.9866 198.084 17.9866C193.991 17.9866 190.661 14.6569 190.661 10.5641C190.661 6.47141 193.991 3.14143 198.084 3.14143Z" fill="black"></path><path fill-rule="evenodd" clip-rule="evenodd" d="M175.618 10.9127C173.472 10.9127 171.732 9.17303 171.732 7.0273C171.732 4.88114 173.472 3.14152 175.618 3.14152C177.764 3.14152 179.503 4.88114 179.503 7.0273C179.503 9.17303 177.764 10.9127 175.618 10.9127ZM175.618 0.735352C172.033 0.735352 169.127 3.55226 169.127 7.0273C169.127 10.415 171.96 13.1613 175.456 13.1613C175.678 13.1613 175.887 13.1199 176.103 13.0982L171.238 19.9712H174.425L181.067 10.3663C181.746 9.38483 182.109 8.21996 182.109 7.0273C182.109 3.55226 179.203 0.735352 175.618 0.735352Z" fill="black"></path><path fill-rule="evenodd" clip-rule="evenodd" d="M163.491 6.50412C163.491 3.31815 160.82 0.735352 157.526 0.735352C154.231 0.735352 151.561 3.31815 151.561 6.50412H154.166C154.166 4.64703 155.67 3.14152 157.526 3.14152C159.381 3.14152 160.886 4.64703 160.886 6.50412H160.885C160.885 7.31299 160.575 8.09069 160.017 8.6766L151.561 17.5652V19.9712H163.491V17.5652H155.035L161.994 10.2505C162.955 9.24019 163.491 7.8989 163.491 6.50412Z" fill="black"></path></svg>