<svg xmlns="http://www.w3.org/2000/svg" width="28" height="28" viewBox="0 0 28 28" fill="none">
  <path
    d="M15.7499 9.45014L9.7999 12.6001M9.7999 15.4001L15.7499 18.5501M20.9999 8.22508C20.9999 9.67481 19.8246 10.8501 18.3749 10.8501C16.9252 10.8501 15.7499 9.67481 15.7499 8.22508C15.7499 6.77534 16.9252 5.6001 18.3749 5.6001C19.8246 5.6001 20.9999 6.77534 20.9999 8.22508ZM10.1499 14.0001C10.1499 15.4498 8.97465 16.6251 7.5249 16.6251C6.07515 16.6251 4.8999 15.4498 4.8999 14.0001C4.8999 12.5503 6.07515 11.3751 7.5249 11.3751C8.97465 11.3751 10.1499 12.5503 10.1499 14.0001ZM20.9999 19.7752C20.9999 21.2249 19.8246 22.4001 18.3749 22.4001C16.9252 22.4001 15.7499 21.2249 15.7499 19.7752C15.7499 18.3254 16.9252 17.1502 18.3749 17.1502C19.8246 17.1502 20.9999 18.3254 20.9999 19.7752Z"
    stroke="#1a1b1f"
    stroke-width="1.4"
  />
</svg>
