<svg class="_gnb__snap--icon_vuwmc_126" width="20" height="20" viewBox="0 0 20 20" fill="none" xmlns="http://www.w3.org/2000/svg"><path d="M19.5 9.8902C19.5 7.9671 19.1534 6.07117 18.5079 4.2568H17.5225C18.1953 6.05758 18.5486 7.94671 18.5486 9.8902C18.5486 11.8337 18.1681 13.9063 17.4342 15.7886H18.4195C19.1263 13.8927 19.5 11.9084 19.5 9.8902Z" fill="#D1D1D2"></path><path d="M12.7521 13.8587C12.2153 14.1781 11.3523 14.3344 10.1631 14.3344C8.97389 14.3344 8.15164 14.2053 7.57403 13.9471C6.99642 13.6752 6.60908 13.1724 6.42561 12.4249H5.1073C5.26359 13.4782 5.74607 14.2325 6.54113 14.681C7.33619 15.1227 8.54578 15.3401 10.1563 15.3401C11.7668 15.3401 12.9628 15.1023 13.6967 14.6198C14.4442 14.1305 14.818 13.3763 14.818 12.3637C14.818 11.1949 14.383 10.4474 13.52 10.1212C12.6638 9.79506 11.7192 9.5844 10.6931 9.49606C9.66702 9.39413 8.72246 9.26502 7.85265 9.10873C6.99642 8.95243 6.56831 8.44957 6.56831 7.61373C6.56831 6.9138 6.86051 6.42453 7.45172 6.13233C8.04292 5.84013 8.87876 5.69742 9.96602 5.69742C10.9242 5.69742 11.6989 5.82654 12.2969 6.08476C12.8948 6.34299 13.2414 6.82546 13.3433 7.5186H14.6413C14.5325 6.51967 14.0908 5.80615 13.3094 5.36445C12.5347 4.91595 11.4134 4.6917 9.95923 4.6917C8.50501 4.6917 7.3226 4.92954 6.50715 5.41202C5.6985 5.8877 5.29757 6.6284 5.29757 7.62732C5.29757 8.76216 5.72568 9.48927 6.5819 9.79506C7.45172 10.1009 8.39628 10.3115 9.42239 10.4067C10.4485 10.495 11.3931 10.6377 12.2493 10.828C13.1191 11.0046 13.5472 11.5347 13.5472 12.4113C13.5472 13.0569 13.2754 13.5393 12.7386 13.8587H12.7521Z" fill="#D1D1D2"></path><path d="M2.47747 4.25H1.49213C0.846567 6.07117 0.5 7.9671 0.5 9.8834C0.5 11.7997 0.873748 13.8791 1.58047 15.7818H2.56581C1.8319 13.9063 1.45136 11.922 1.45136 9.8834C1.45136 7.84478 1.80472 6.05079 2.47747 4.25Z" fill="#D1D1D2"></path></svg>